:FULLY-SPECIFIED
:FORCE-ALL-JOINTS-BE-3DOF
:DEGREES
714
root -11.7101 13.9154 -38.3003 511.903 -61.6129 213.469
lfemur -65.0416 24.806 -1.09568
ltibia 75.8684 -0 0
lfoot -8.31884 -7.73925 0.00309425
ltoes -3.61103 0 0
rfemur 9.34533 -10.7668 11.8042
rtibia 40.8081 -0 0
rfoot -24.8025 -27.7399 4.34543e-06
rtoes -29.3673 0 0
lowerback 12.2329 1.43572 8.82392
upperback -1.69531 3.47472 5.87973
thorax -8.58475 1.28562 0.703894
lowerneck -4.0156 4.9539 0.983659
upperneck 3.31785 6.51915 0.760707
head 1.71357 3.28006 0.247274
lclavicle -1.87602e-15 2.96433e-14 -1.20983e-30
lhumerus 63.0872 14.9594 108.08
lradius 12.1679 -0 0
lwrist -70.5964 0 0
lhand -33.0005 40.4883 -0.00678644
lfingers 7.12502 -0 0
lthumb -6.66846 68.2279 -0.00646465
rclavicle -1.94512e-14 -3.47603e-14 1.07667e-30
rhumerus -75.1584 19.2959 -95.4433
rradius 114.729 -0 0
rwrist -66.2413 0 0
rhand -8.32351 -40.2709 0.122976
rfingers 7.12502 -0 0
rthumb 17.4897 -69.5921 0.120788
715
root -11.718 13.9096 -38.3053 511.849 -61.7512 213.576
lfemur -65.1975 24.8702 -1.15402
ltibia 76.0293 -0 0
lfoot -8.40488 -7.79183 0.00325441
ltoes -3.67104 0 0
rfemur 9.40527 -10.8103 11.7975
rtibia 40.7172 -0 0
rfoot -24.8041 -27.7458 4.26507e-06
rtoes -29.6593 0 0
lowerback 12.2268 1.43666 8.87247
upperback -1.73131 3.4857 5.83519
thorax -8.61478 1.28691 0.627392
lowerneck -3.92437 4.90705 0.903776
upperneck 3.33837 6.45654 0.886993
head 1.69679 3.25039 0.29516
lclavicle -3.44623e-15 2.79126e-14 -1.76425e-30
lhumerus 63.0798 14.9598 108.016
lradius 12.1528 -0 0
lwrist -70.5713 0 0
lhand -33.034 40.8441 -0.00647066
lfingers 7.12502 -0 0
lthumb -6.62557 68.0117 -0.00724817
rclavicle -2.07615e-14 -3.37198e-14 1.22099e-30
rhumerus -75.1609 19.2822 -95.4457
rradius 114.603 -0 0
rwrist -65.9242 0 0
rhand -7.82652 -39.794 0.118824
rfingers 7.12502 -0 0
rthumb 17.974 -69.0632 0.118553
716
root -11.7251 13.9034 -38.3128 511.669 -61.8318 213.799
lfemur -65.3549 24.9348 -1.21311
ltibia 76.181 -0 0
lfoot -8.49238 -7.84531 0.00333629
ltoes -3.7408 0 0
rfemur 9.45068 -10.8432 11.7925
rtibia 40.6253 -0 0
rfoot -24.8056 -27.7516 4.0293e-06
rtoes -29.879 0 0
lowerback 12.2178 1.38088 8.87114
upperback -1.69375 3.406 5.86615
thorax -8.57428 1.2505 0.676424
lowerneck -4.24429 4.78152 0.853209
upperneck 3.60023 6.27983 1.01345
head 1.8327 3.16561 0.35231
lclavicle -5.27199e-15 2.59002e-14 -2.34926e-30
lhumerus 63.0707 14.9602 107.936
lradius 12.136 -0 0
lwrist -70.5554 0 0
lhand -33.0667 41.1898 -0.005964
lfingers 7.12502 -0 0
lthumb -6.58072 67.7858 -0.00789434
rclavicle -2.21391e-14 -3.26258e-14 1.34706e-30
rhumerus -75.163 19.2712 -95.4476
rradius 114.481 -0 0
rwrist -65.6089 0 0
rhand -7.34088 -39.3281 0.110769
rfingers 7.12502 -0 0
rthumb 18.4503 -68.543 0.111994
717
root -11.7322 13.896 -38.3187 511.554 -61.8978 213.978
lfemur -65.5125 24.9992 -1.27242
ltibia 76.321 -0 0
lfoot -8.58035 -7.89907 0.00333629
ltoes -3.81904 0 0
rfemur 9.47945 -10.8641 11.7892
rtibia 40.5334 -0 0
rfoot -24.8071 -27.7572 3.65382e-06
rtoes -30.0174 0 0
lowerback 12.162 1.34315 8.88394
upperback -1.68113 3.34861 5.88281
thorax -8.5314 1.22388 0.699209
lowerneck -4.54037 4.76204 0.317147
upperneck 3.82351 6.25781 1.53309
head 1.92355 3.16077 0.614645
lclavicle -7.31923e-15 2.36437e-14 -2.92897e-30
lhumerus 63.06 14.9608 107.843
lradius 12.118 -0 0
lwrist -70.5499 0 0
lhand -33.0979 41.5205 -0.00529521
lfingers 7.12502 -0 0
lthumb -6.5344 67.5524 -0.00837596
rclavicle -2.35706e-14 -3.14891e-14 1.4502e-30
rhumerus -75.1645 19.2629 -95.4491
rradius 114.362 -0 0
rwrist -65.2987 0 0
rhand -6.87432 -38.8804 0.0993103
rfingers 7.12502 -0 0
rthumb 18.9104 -68.0405 0.10155
718
root -11.7392 13.8909 -38.3252 511.425 -61.9606 214.167
lfemur -65.6689 25.0629 -1.33144
ltibia 76.4465 -0 0
lfoot -8.66785 -7.95255 0.00325441
ltoes -3.90443 0 0
rfemur 9.4895 -10.8714 11.7881
rtibia 40.4425 -0 0
rfoot -24.8085 -27.7625 3.16404e-06
rtoes -30.0656 0 0
lowerback 12.1267 1.36483 8.97196
upperback -1.68368 3.38502 5.88358
thorax -8.50746 1.23745 0.645697
lowerneck -4.70078 4.65894 -0.00566481
upperneck 3.96456 6.12312 1.84973
head 1.9794 3.09758 0.770951
lclavicle -9.55387e-15 2.11807e-14 -3.4697e-30
lhumerus 63.0479 14.9614 107.738
lradius 12.0992 -0 0
lwrist -70.5912 0 0
lhand -33.1272 41.831 -0.00450304
lfingers 7.12502 0 0
lthumb -6.4871 67.3141 -0.00867306
rclavicle -2.50425e-14 -3.03203e-14 1.52664e-30
rhumerus -75.1655 19.2578 -95.45
rradius 114.249 -0 0
rwrist -64.9973 0 0
rhand -6.43439 -38.4583 0.0851631
rfingers 7.12502 -0 0
rthumb 19.3463 -67.5644 0.0879297
719
root -11.7464 13.8874 -38.3318 511.409 -62.0259 214.239
lfemur -65.8226 25.1253 -1.3896
ltibia 76.5552 -0 0
lfoot -8.75389 -8.00513 0.00309425
ltoes -3.99568 0 0
rfemur 9.4901 -10.8691 11.7867
rtibia 40.3534 -0 0
rfoot -24.8098 -27.7674 2.59401e-06
rtoes -30.0718 0 0
lowerback 12.081 1.33624 8.94513
upperback -1.68873 3.33776 5.88804
thorax -8.49063 1.21682 0.675024
lowerneck -3.98543 4.74754 1.12415
upperneck 3.40362 6.23654 0.72359
head 1.74188 3.14012 0.205862
lclavicle -1.19418e-14 1.85486e-14 -3.94137e-30
lhumerus 63.0346 14.962 107.623
lradius 12.0797 -0 0
lwrist -70.7101 0 0
lhand -33.1541 42.1165 -0.00363484
lfingers 7.12502 -0 0
lthumb -6.43931 67.0733 -0.00877346
rclavicle -2.65413e-14 -2.91301e-14 1.57362e-30
rhumerus -75.1658 19.256 -95.4503
rradius 114.142 -0 0
rwrist -64.7081 0 0
rhand -6.02865 -38.069 0.069239
rfingers 7.12502 -0 0
rthumb 19.75 -67.1235 0.0720812
720
root -11.7542 13.8828 -38.3366 511.405 -62.1112 214.314
lfemur -65.9722 25.1858 -1.44638
ltibia 76.6442 -0 0
lfoot -8.83753 -8.05624 0.0028629
ltoes -4.09149 0 0
rfemur 9.49183 -10.8626 11.7825
rtibia 40.2671 -0 0
rfoot -24.811 -27.7718 1.98487e-06
rtoes -30.0895 0 0
lowerback 12.0241 1.32197 8.99452
upperback -1.71075 3.31983 5.86059
thorax -8.47859 1.20577 0.622903
lowerneck -4.05436 4.73972 0.765257
upperneck 3.4436 6.23443 0.98709
head 1.74606 3.14052 0.348629
lclavicle -1.44491e-14 1.57851e-14 -4.31854e-30
lhumerus 63.0203 14.9627 107.499
lradius 12.0602 -0 0
lwrist -70.8992 0 0
lhand -33.1782 42.3718 -0.00274464
lfingers 7.12502 -0 0
lthumb -6.39152 66.8326 -0.00867306
rclavicle -2.80535e-14 -2.79292e-14 1.58947e-30
rhumerus -75.1676 19.255 -95.4542
rradius 114.042 -0 0
rwrist -64.4345 0 0
rhand -5.66467 -37.7198 0.0526036
rfingers 7.12502 -0 0
rthumb 20.1135 -66.7265 0.0551491
721
root -11.7599 13.879 -38.3415 511.403 -62.1322 214.349
lfemur -66.1163 25.244 -1.50121
ltibia 76.711 -0 0
lfoot -8.91778 -8.10529 0.00257076
ltoes -4.19056 0 0
rfemur 9.49462 -10.852 11.7758
rtibia 40.1846 -0 0
rfoot -24.812 -27.7757 1.38284e-06
rtoes -30.1179 0 0
lowerback 12.0139 1.34558 9.01253
upperback -1.71487 3.35281 5.85421
thorax -8.47415 1.22084 0.600265
lowerneck -4.04538 4.72992 0.726988
upperneck 3.45724 6.22307 0.999831
head 1.74721 3.13467 0.358529
lclavicle -1.70415e-14 1.29277e-14 -4.58135e-30
lhumerus 63.0051 14.9633 107.367
lradius 12.0407 -0 0
lwrist -71.1512 0 0
lhand -33.199 42.5919 -0.00189086
lfingers 7.12502 -0 0
lthumb -6.34422 66.5943 -0.00837596
rclavicle -2.95657e-14 -2.67284e-14 1.57362e-30
rhumerus -75.1729 19.2521 -95.4655
rradius 113.952 -0 0
rwrist -64.1801 0 0
rhand -5.34998 -37.4179 0.0364287
rfingers 7.12502 -0 0
rthumb 20.4288 -66.3821 0.038418
